<?xml version="1.0" standalone="no"?><!DOCTYPE svg PUBLIC "-//W3C//DTD SVG 1.1//EN" "http://www.w3.org/Graphics/SVG/1.1/DTD/svg11.dtd"><svg t="1614245879979" class="icon" viewBox="0 0 1024 1024" version="1.1" xmlns="http://www.w3.org/2000/svg" p-id="5426" xmlns:xlink="http://www.w3.org/1999/xlink" width="128" height="128"><defs><style type="text/css"></style></defs><path d="M180.672 289.088v-60.992c0-18.368 14.912-33.216 33.28-33.216H404.48v-33.152c0-18.432 14.912-33.28 33.28-33.28h150.656c18.368 0 33.152 14.976 33.152 33.28v33.152h190.656c18.368 0 33.152 14.912 33.152 33.28v60.928H180.672z m571.904 571.904a33.152 33.152 0 0 1-33.152 33.216H307.008a33.152 33.152 0 0 1-33.216-33.216L207.36 312.384h611.84l-66.56 548.608zM420.096 438.72a33.152 33.152 0 1 0-66.368 0v332.48a33.152 33.152 0 1 0 66.368 0V438.72z m124.16 0a33.152 33.152 0 1 0-66.432 0v332.48a33.152 33.152 0 1 0 66.368 0V438.72z m126.336 0a33.152 33.152 0 1 0-66.368 0v332.48a33.152 33.152 0 1 0 66.368 0V438.72z" p-id="5427"></path></svg>