<?xml version="1.0" standalone="no"?><!DOCTYPE svg PUBLIC "-//W3C//DTD SVG 1.1//EN" "http://www.w3.org/Graphics/SVG/1.1/DTD/svg11.dtd"><svg t="1611818980464" class="icon" viewBox="0 0 1024 1024" version="1.1" xmlns="http://www.w3.org/2000/svg" p-id="15682" xmlns:xlink="http://www.w3.org/1999/xlink" width="200" height="200"><defs><style type="text/css"></style></defs><path d="M352.223 662.878c0.025 0.025 0.033 0.05 0.058 0.058 17.32 17.287 45.368 17.262 62.647-0.058l485-484.91c17.336-17.344 17.336-45.466 0-62.81-0.05-0.058-0.108-0.108-0.149-0.149-17.344-17.262-45.393-17.196-62.647 0.148l-484.909 484.91c-17.328 17.344-17.328 45.466 0 62.811z" p-id="15683" fill="#8a8a8a"></path><path d="M889.48 445.365h-0.19c-24.414 0-44.206 19.792-44.206 44.206V845.06H178.958V178.793l355.463 0.165h0.033c24.463-0.066 44.239-19.965 44.173-44.429v-0.19c0-24.414-19.792-44.206-44.206-44.206H134.24a44.254 44.254 0 0 0-31.328 13.019 43.94 43.94 0 0 0-12.788 31.155V889.75a44.719 44.719 0 0 0 13.01 31.32 43.924 43.924 0 0 0 31.164 12.788h755.469a44.719 44.719 0 0 0 31.32-13.011 44.014 44.014 0 0 0 12.787-31.196v-400.08c-0.057-24.464-19.932-44.256-44.395-44.207z" p-id="15684" fill="#8a8a8a"></path></svg>