<?xml version="1.0" standalone="no"?><!DOCTYPE svg PUBLIC "-//W3C//DTD SVG 1.1//EN" "http://www.w3.org/Graphics/SVG/1.1/DTD/svg11.dtd"><svg t="1611906772797" class="icon" viewBox="0 0 1170 1024" version="1.1" xmlns="http://www.w3.org/2000/svg" p-id="7222" xmlns:xlink="http://www.w3.org/1999/xlink" width="342.7734375" height="300"><defs><style type="text/css"></style></defs><path d="M999.511 150.794c-116.51-114.693-302.193-118.779-423.629-9.313-121.436-109.47-307.128-105.385-423.634 9.313-118.932 117.366-120.202 308.92-2.836 427.858 0.942 0.952 1.89 1.9 2.841 2.842l354.898 351.682c37.294 37.955 98.304 38.498 136.259 1.204l1.203-1.204 354.898-351.365c119.02-117.279 120.438-308.833 3.16-427.853-1.045-1.065-2.1-2.12-3.16-3.164zM953.58 536.202L598.682 887.89a32.118 32.118 0 0 1-45.42 0.184l-0.19-0.184-355.215-351.688c-93.921-92.708-94.91-243.998-2.201-337.92 0.727-0.737 1.464-1.47 2.201-2.201 92.442-90.015 239.012-92.411 334.341-5.458l43.68 37.575 43.36-37.575c95.75-86.508 242.33-83.415 334.342 7.065 93.48 93.159 93.742 244.455 0.588 337.93-0.2 0.19-0.389 0.39-0.588 0.584z" p-id="7223" fill="#f99302"></path><path d="M749.972 267.305a16.056 16.056 0 0 0 16.057 16.056c57.651 0 104.386 46.736 104.386 104.382a16.056 16.056 0 0 0 32.118 0c0-75.387-61.117-136.5-136.5-136.5a16.061 16.061 0 0 0-16.06 16.062z" p-id="7224" fill="#f99302"></path></svg>