<?xml version="1.0" standalone="no"?><!DOCTYPE svg PUBLIC "-//W3C//DTD SVG 1.1//EN" "http://www.w3.org/Graphics/SVG/1.1/DTD/svg11.dtd"><svg t="1611907067662" class="icon" viewBox="0 0 1037 1024" version="1.1" xmlns="http://www.w3.org/2000/svg" p-id="4873" xmlns:xlink="http://www.w3.org/1999/xlink" width="64.8125" height="64"><defs><style type="text/css"></style></defs><path d="M718.982 911.463h-514.16c-31.64 0-56.69-26.367-56.69-56.69V170.545c0-31.64 26.368-56.69 56.69-56.69h514.16c31.641 0 56.69 26.368 56.69 56.69v110.742h-50.098V170.545c0-3.955-2.636-6.592-6.592-6.592h-514.16c-3.955 0-6.592 2.637-6.592 6.592v684.228c0 3.956 2.637 6.592 6.592 6.592h514.16c3.956 0 6.592-2.636 6.592-6.592v-104.15h50.098v102.832c0 31.64-25.049 58.008-56.69 58.008z" p-id="4874" fill="#f99302"></path><path d="M446.082 597.693H336.658c-14.502 0-25.049-11.865-25.049-25.048 0-13.184 11.866-25.05 25.05-25.05h109.423c14.502 0 25.049 11.866 25.049 25.05 0 14.501-10.547 25.048-25.049 25.048z m71.191 222.803c-6.591 0-11.865-2.637-14.502-5.273-7.91-6.592-10.546-14.502-7.91-25.05l39.551-166.112c1.318-3.956 2.637-7.91 5.274-10.547l251.806-308.496c3.955-5.274 9.229-7.91 14.502-9.229 69.873-9.228 129.2 39.55 138.428 104.15 1.318 6.592-1.318 13.184-5.274 17.14L693.934 738.757c-2.637 3.955-6.592 6.592-10.547 7.91l-156.885 67.236c-3.955 5.274-6.592 6.592-9.229 6.592zM579.236 641.2L552.87 751.941l104.15-44.824L891.688 399.94c-9.228-31.64-39.55-52.734-72.51-52.734L579.238 641.2z" p-id="4875" fill="#f99302"></path><path d="M857.41 508.045c-11.865 0-23.73-9.229-25.049-21.094-2.636-18.457-13.183-36.914-29.004-47.46-14.502-11.866-35.595-15.821-54.052-14.503-14.502 1.319-26.367-7.91-29.004-19.775-1.319-14.502 7.91-26.367 19.775-29.004 32.96-3.955 64.6 3.955 90.967 23.73 26.367 18.457 43.506 48.78 47.46 81.739 1.32 14.502-7.91 26.367-19.774 29.004 2.636-2.637 1.318-2.637-1.319-2.637zM662.293 734.803c-11.865 0-23.73-9.229-25.049-21.094-2.637-14.502-10.547-30.322-23.73-40.87-13.184-10.546-29.004-14.501-43.506-11.864-14.502 1.318-26.367-7.91-29.004-19.776-1.318-14.502 7.91-26.367 19.775-29.004 29.004-3.955 58.008 3.955 81.739 21.094 23.73 17.139 39.55 43.506 43.505 72.51 1.319 14.502-7.91 26.367-19.775 29.004h-3.955zM576.6 463.22H336.658c-14.502 0-25.049-11.866-25.049-25.05 0-13.183 11.866-25.048 25.05-25.048h239.94c14.503 0 25.05 11.865 25.05 25.049 0 14.502-10.547 25.049-25.05 25.049z m0-130.518H336.658c-14.502 0-25.049-11.865-25.049-25.049 0-13.183 11.866-25.049 25.05-25.049h239.94c14.503 0 25.05 11.866 25.05 25.05 0 14.501-10.547 25.048-25.05 25.048z" p-id="4876" fill="#f99302"></path></svg>