<?xml version="1.0" standalone="no"?><!DOCTYPE svg PUBLIC "-//W3C//DTD SVG 1.1//EN" "http://www.w3.org/Graphics/SVG/1.1/DTD/svg11.dtd"><svg t="1611907201123" class="icon" viewBox="0 0 1024 1024" version="1.1" xmlns="http://www.w3.org/2000/svg" p-id="4154" xmlns:xlink="http://www.w3.org/1999/xlink" width="128" height="128"><defs><style type="text/css"></style></defs><path d="M362.041486 741.044579a35.720681 35.720681 0 0 1-35.720681-35.720681v-178.365267a35.720681 35.720681 0 0 1 35.720681-35.720681 35.720681 35.720681 0 0 1 35.720681 35.720681v178.365267a35.720681 35.720681 0 0 1-35.720681 35.720681z" fill="#f99302" p-id="4155"></path><path d="M452.962526 651.838131H270.977563a35.720681 35.720681 0 0 1-35.720681-35.720681 35.720681 35.720681 0 0 1 35.720681-35.720681h181.984963a35.720681 35.720681 0 0 1 35.720681 35.720681 35.720681 35.720681 0 0 1-35.720681 35.720681z" fill="#f99302" p-id="4156"></path><path d="M672.478018 568.061227h-5.096151a35.720681 35.720681 0 0 1-35.720681-35.720681 35.720681 35.720681 0 0 1 35.720681-35.720681h5.096151a35.720681 35.720681 0 0 1 35.720681 35.720681 35.720681 35.720681 0 0 1-35.720681 35.720681z" fill="#f99302" p-id="4157"></path><path d="M758.826811 738.329807h-5.096151a35.720681 35.720681 0 0 1-35.720681-35.720681 35.720681 35.720681 0 0 1 35.720681-35.720681h5.096151a35.720681 35.720681 0 0 1 35.720681 35.720681 35.720681 35.720681 0 0 1-35.720681 35.720681z" fill="#f99302" p-id="4158"></path><path d="M541.311677 266.102404a35.720681 35.720681 0 0 1-35.720681-35.720681v-32.100985a64.201971 64.201971 0 0 0-64.773501-63.011282H390.23701A101.018086 101.018086 0 0 1 289.361807 36.061218 35.673053 35.673053 0 0 1 324.701468 0.007144a35.482543 35.482543 0 0 1 36.101701 35.339661 28.957565 28.957565 0 0 0 29.100448 28.576544h51.675919a135.976726 135.976726 0 0 1 135.452822 133.976368v32.577261a35.720681 35.720681 0 0 1-35.720681 35.625426z" fill="#f99302" opacity=".4" p-id="4159"></path><path d="M510.115616 1024c-70.679321 0-140.691856-0.619158-209.561329-1.857475a286.336979 286.336979 0 0 1-206.417909-75.918354 288.003944 288.003944 0 0 1-93.826322-201.178876 316.151841 316.151841 0 0 1-0.238138-19.05103v-220.753809a287.670551 287.670551 0 0 1 80.490602-206.084515 288.051572 288.051572 0 0 1 203.226861-89.396958h19.05103c136.595884-2.381379 278.85945-2.429006 420.932505 0a290.05193 290.05193 0 0 1 300.05372 277.240112c0.238138 6.28684 0.333393 12.57368 0 19.05103v220.706181a290.147185 290.147185 0 0 1-283.574579 295.529101h-18.003223c-70.726948 1.095434-141.692035 1.714593-212.133218 1.714593z m-210.561508-73.25121c139.215401 2.381379 280.669298 2.381379 422.742353 0h2.238496c4.762757 0.238138 9.525515 0.285765 14.288273 0a218.753451 218.753451 0 0 0 213.6573-223.27807v-222.277891-15.050314a218.658195 218.658195 0 0 0-227.897945-208.846915c-143.406627-2.333751-284.860524-2.381379-422.742353 0a186.223817 186.223817 0 0 0-16.383886 0A217.276996 217.276996 0 0 0 132.143183 348.640991a217.467506 217.467506 0 0 0-60.629902 155.932679V741.80662a217.276996 217.276996 0 0 0 70.726948 151.741453 215.657658 215.657658 0 0 0 157.456762 57.200717z" fill="#f99302" p-id="4160"></path></svg>