<?xml version="1.0" standalone="no"?><!DOCTYPE svg PUBLIC "-//W3C//DTD SVG 1.1//EN" "http://www.w3.org/Graphics/SVG/1.1/DTD/svg11.dtd"><svg t="1611906648272" class="icon" viewBox="0 0 1024 1024" version="1.1" xmlns="http://www.w3.org/2000/svg" p-id="3268" xmlns:xlink="http://www.w3.org/1999/xlink" width="300" height="300"><defs><style type="text/css"></style></defs><path d="M750.933333 409.6a136.533333 136.533333 0 1 1 0 273.066667 170.666667 170.666667 0 0 1-170.666666 170.666666h-238.933334a170.666667 170.666667 0 0 1-170.666666-170.666666v-307.2a34.133333 34.133333 0 0 1 34.133333-34.133334h512a34.133333 34.133333 0 0 1 34.133333 34.133334v34.133333z m0 68.266667v136.533333a68.266667 68.266667 0 1 0 0-136.533333zM238.933333 409.6v273.066667a102.4 102.4 0 0 0 102.4 102.4h238.933334a102.4 102.4 0 0 0 102.4-102.4v-273.066667H238.933333z m102.4-238.933333h68.266667v136.533333h-68.266667V170.666667z m170.666667 0h68.266667v136.533333h-68.266667V170.666667z" p-id="3269" fill="#f99302"></path></svg>