<?xml version="1.0" standalone="no"?><!DOCTYPE svg PUBLIC "-//W3C//DTD SVG 1.1//EN" "http://www.w3.org/Graphics/SVG/1.1/DTD/svg11.dtd"><svg t="1613723658483" class="icon" viewBox="0 0 1024 1024" version="1.1" xmlns="http://www.w3.org/2000/svg" p-id="2440" xmlns:xlink="http://www.w3.org/1999/xlink" width="128" height="128"><defs><style type="text/css"></style></defs><path d="M979.936 962.976c-22.656 48.768-83.136 52.544-101.152 52.544H136.928c-12.736-0.736-64.352-6.336-87.776-50.432-9.888-18.592-17.664-49.728 1.408-92.32 34.752-77.408 115.264-84.928 134.496-85.6 137.056-21.216 181.568-68.384 181.984-68.832l3.2-3.328c14.624-13.792 19.616-38.016 20.928-59.072-88.64-67.424-144.704-197.632-144.704-340.736 0-229.344 142.272-310.688 264.128-310.688 121.888 0 264.192 81.376 264.192 310.688 0 143.104-56 273.28-144.64 340.704 1.376 21.12 6.368 45.408 20.864 59.104l4 4.288c0.096 0 44.832 46.816 181.216 67.904 31.392 1.248 90.336 18.336 128.608 75.936 29.888 44.992 24.704 79.168 15.072 99.84z" fill="#b2b6bb" p-id="2441"></path></svg>