<?xml version="1.0" standalone="no"?><!DOCTYPE svg PUBLIC "-//W3C//DTD SVG 1.1//EN" "http://www.w3.org/Graphics/SVG/1.1/DTD/svg11.dtd"><svg t="1612084564301" class="icon" viewBox="0 0 1024 1024" version="1.1" xmlns="http://www.w3.org/2000/svg" p-id="3904" xmlns:xlink="http://www.w3.org/1999/xlink" width="128" height="128"><defs><style type="text/css"></style></defs><path d="M619.966452 596.700419H401.693637A330.216059 330.216059 0 0 0 81.053843 941.776201 49.202193 49.202193 0 0 0 114.075449 990.648178a273.418897 273.418897 0 0 0 77.270558 20.803612c106.329571 5.283457 212.989358 7.594969 319.318929 10.89713 90.148984 0 180.297968-2.311512 270.446953-6.274105a617.504031 617.504031 0 0 0 128.784263-25.756853 46.89068 46.89068 0 0 0 33.021606-49.862625 328.234763 328.234763 0 0 0-322.951306-343.754918z m-123.831022-86.516607a253.93615 253.93615 0 0 0 255.257014-248.982909 251.954853 251.954853 0 1 0-255.257014 248.982909z" fill="#17AD17" p-id="3905"></path></svg>