<?xml version="1.0" standalone="no"?><!DOCTYPE svg PUBLIC "-//W3C//DTD SVG 1.1//EN" "http://www.w3.org/Graphics/SVG/1.1/DTD/svg11.dtd"><svg t="1613639150374" class="icon" viewBox="0 0 1024 1024" version="1.1" xmlns="http://www.w3.org/2000/svg" p-id="772" xmlns:xlink="http://www.w3.org/1999/xlink" width="128" height="128"><defs><style type="text/css"></style></defs><path d="M530.432 577.28c159.872 0 289.4336-128.1792 289.4336-286.2848a276.8384 276.8384 0 0 0-40.5248-143.104C699.4176 10.9056 522.4192-35.9936 384 43.0592 245.5808 122.1632 198.144 297.2416 278.0672 434.176c52.0192 89.088 148.3776 143.744 252.3904 143.104M680.7552 665.0112a206.7968 206.7968 0 0 0-25.6-8.5248 258.56 258.56 0 0 0-71.1168-9.2672H441.856a263.5264 263.5264 0 0 0-71.1168 9.2672 284.288 284.288 0 0 0-130.816 71.168 284.9536 284.9536 0 0 0-82.5088 204.3136 71.168 71.168 0 0 0 71.1168 71.1936h568.8832a71.168 71.168 0 0 0 71.0912-71.168 213.9904 213.9904 0 0 0 0-37.0432 284.672 284.672 0 0 0-187.7248-229.9392" p-id="773" fill="#8a8a8a"></path></svg>