<?xml version="1.0" standalone="no"?><!DOCTYPE svg PUBLIC "-//W3C//DTD SVG 1.1//EN" "http://www.w3.org/Graphics/SVG/1.1/DTD/svg11.dtd"><svg t="1613545298850" class="icon" viewBox="0 0 1024 1024" version="1.1" xmlns="http://www.w3.org/2000/svg" p-id="1701" xmlns:xlink="http://www.w3.org/1999/xlink" width="128" height="128"><defs><style type="text/css"></style></defs><path d="M512 0.0512C229.1712 0.0512-0.0512 229.2736-0.0512 512-0.0512 794.7776 229.2224 1023.9488 512 1023.9488 794.7264 1023.9488 1023.9488 794.7776 1023.9488 512 1023.9488 229.2736 794.7264 0.0512 512 0.0512L512 0.0512 512 0.0512ZM696.6784 230.0928C747.4688 230.0928 788.736 271.36 788.736 322.2016 788.736 373.0432 747.4688 414.1568 696.6784 414.1568 645.8368 414.1568 604.6208 373.0432 604.6208 322.2016 604.6208 271.36 645.8368 230.0928 696.6784 230.0928L696.6784 230.0928 696.6784 230.0928ZM327.2704 230.0928C378.0608 230.0928 419.2768 271.36 419.2768 322.2016 419.2768 373.0432 378.0608 414.1568 327.2704 414.1568 276.4288 414.1568 235.2128 373.0432 235.2128 322.2016 235.2128 271.36 276.4288 230.0928 327.2704 230.0928L327.2704 230.0928 327.2704 230.0928ZM512 866.4064C327.1168 866.4064 175.5136 724.8384 159.1296 544.2048L864.768 544.2048C848.4352 724.8384 696.832 866.4064 511.9488 866.4064L511.9488 866.4064 512 866.4064 512 866.4064Z" p-id="1702" fill="#A3A6BC"></path></svg>