<?xml version="1.0" standalone="no"?><!DOCTYPE svg PUBLIC "-//W3C//DTD SVG 1.1//EN" "http://www.w3.org/Graphics/SVG/1.1/DTD/svg11.dtd"><svg t="1612186076058" class="icon" viewBox="0 0 1121 1024" version="1.1" xmlns="http://www.w3.org/2000/svg" p-id="2359" xmlns:xlink="http://www.w3.org/1999/xlink" width="140.125" height="128"><defs><style type="text/css"></style></defs><path d="M977.326055 0.000244H145.547377A143.830428 143.830428 0 0 0 1.448791 143.465001V821.783926a42.954104 42.954104 0 0 0 0 21.940235v36.810838a143.830428 143.830428 0 0 0 144.098586 143.464757h831.7543a143.830428 143.830428 0 0 0 144.098586-143.464757V143.586891A143.830428 143.830428 0 0 0 977.326055 0.000244zM145.571755 87.322378h831.7543a56.435159 56.435159 0 0 1 56.386404 56.069489v544.849163a965.85789 965.85789 0 0 0-113.089722-130.056836 103.77731 103.77731 0 0 0-88.029097-27.449671c-52.315271 7.484058-109.701174 50.828211-175.13183 132.226481a1046.622332 1046.622332 0 0 0-41.442665 55.19188c-57.654061-79.204247-171.060697-225.472479-267.23206-292.853378a101.510153 101.510153 0 0 0-93.050973-14.041751c-35.396912 11.530812-69.867459 41.442666-104.947456 91.368889a825.220985 825.220985 0 0 0-62.017731 106.044468V143.465001a56.508294 56.508294 0 0 1 56.776452-56.142623z" fill="#A3A6BC" p-id="2360"></path><path d="M743.516287 299.703851a101.827067 101.827067 0 1 0 101.827067-101.827068 101.827067 101.827067 0 0 0-101.827067 101.827068z" fill="#A3A6BC" p-id="2361"></path></svg>