<?xml version="1.0" standalone="no"?><!DOCTYPE svg PUBLIC "-//W3C//DTD SVG 1.1//EN" "http://www.w3.org/Graphics/SVG/1.1/DTD/svg11.dtd"><svg t="1614256844182" class="icon" viewBox="0 0 1365 1024" version="1.1" xmlns="http://www.w3.org/2000/svg" p-id="3140" xmlns:xlink="http://www.w3.org/1999/xlink" width="170.625" height="128"><defs><style type="text/css"></style></defs><path d="M1308.444444 1024H333.653333L711.111111 369.777778l142.222222-142.222222 28.444445-170.666667 85.333333-56.888889h341.333333a56.888889 56.888889 0 0 1 56.888889 56.888889v910.222222a56.888889 56.888889 0 0 1-56.888889 56.888889z m-245.76-654.222222l-189.297777 438.186666-133.262223-262.200888L540.444444 938.666667h768l-245.76-568.888889zM711.111111 227.555556l-71.281778 83.171555L540.444444 426.666667l-224 597.333333H56.888889a56.888889 56.888889 0 0 1-56.888889-56.888889V56.888889a56.888889 56.888889 0 0 1 56.888889-56.888889h711.111111s-28.444444 102.4-28.444444 113.777778c0 11.377778-28.444444 113.777778-28.444445 113.777778zM341.333333 170.666667a142.222222 142.222222 0 1 0 0 284.444444 142.222222 142.222222 0 0 0 0-284.444444z" fill="#A6A6A6" p-id="3141"></path></svg>