<?xml version="1.0" standalone="no"?><!DOCTYPE svg PUBLIC "-//W3C//DTD SVG 1.1//EN" "http://www.w3.org/Graphics/SVG/1.1/DTD/svg11.dtd"><svg t="1611907006814" class="icon" viewBox="0 0 1024 1024" version="1.1" xmlns="http://www.w3.org/2000/svg" p-id="2222" width="200" height="200" xmlns:xlink="http://www.w3.org/1999/xlink"><defs><style type="text/css"></style></defs><path d="M888.106667 366.933333L538.88 149.333333a54.826667 54.826667 0 0 0-53.76 0L135.893333 366.933333a18.133333 18.133333 0 0 0-10.026666 23.466667 19.2 19.2 0 0 0 10.026666 10.026667l102.186667 64v294.826666c0 80.64 137.813333 122.88 274.346667 122.88s274.346667-42.666667 274.346666-122.88V464.213333l26.453334-16.213333v125.866667a32.213333 32.213333 0 1 0 64 0v-166.4l11.093333-6.613334a18.56 18.56 0 0 0 9.173333-24.533333 17.92 17.92 0 0 0-9.386666-9.386667z m-166.4 392.32c0 17.28-73.6 58.666667-209.706667 58.666667s-209.706667-41.386667-209.706667-58.666667V504.746667L485.12 618.666667a54.826667 54.826667 0 0 0 53.76 0l182.826667-114.133334zM512 559.36L230.613333 384 512 208.426667 793.386667 384z" p-id="2223" fill="#f99302"></path></svg>