<?xml version="1.0" standalone="no"?><!DOCTYPE svg PUBLIC "-//W3C//DTD SVG 1.1//EN" "http://www.w3.org/Graphics/SVG/1.1/DTD/svg11.dtd"><svg t="1611907180342" class="icon" viewBox="0 0 1024 1024" version="1.1" xmlns="http://www.w3.org/2000/svg" p-id="2998" width="128" height="128" xmlns:xlink="http://www.w3.org/1999/xlink"><defs><style type="text/css"></style></defs><path d="M702.774857 212.114286H321.225143l-0.292572-18.614857v-2.413715a191.085714 191.085714 0 0 1 382.171429 0v2.413715zM358.253714 175.542857h307.492572a154.532571 154.532571 0 0 0-307.492572 0z" fill="#f99302" p-id="2999"></path><path d="M877.714286 1024H146.285714a137.289143 137.289143 0 0 1-137.142857-137.142857V301.714286a137.307429 137.307429 0 0 1 137.142857-137.142857h731.428572a137.307429 137.307429 0 0 1 137.142857 137.142857v585.142857a137.289143 137.289143 0 0 1-137.142857 137.142857zM146.285714 219.428571a82.377143 82.377143 0 0 0-82.285714 82.285715v585.142857a82.285714 82.285714 0 0 0 82.285714 82.285714h731.428572a82.285714 82.285714 0 0 0 82.285714-82.285714V301.714286a82.377143 82.377143 0 0 0-82.285714-82.285715z" fill="#f99302" p-id="3000"></path><path d="M36.571429 513.609143h950.857142v54.857143H36.571429z" fill="#f99302" p-id="3001"></path><path d="M393.142857 566.637714h237.714286v54.857143H393.142857z" fill="#f99302" p-id="3002"></path></svg>