<?xml version="1.0" standalone="no"?><!DOCTYPE svg PUBLIC "-//W3C//DTD SVG 1.1//EN" "http://www.w3.org/Graphics/SVG/1.1/DTD/svg11.dtd"><svg t="1647690789297" class="icon" viewBox="0 0 1318 1024" version="1.1" xmlns="http://www.w3.org/2000/svg" p-id="3755" xmlns:xlink="http://www.w3.org/1999/xlink" width="41.1875" height="32"><defs><style type="text/css">@font-face { font-family: feedback-iconfont; src: url("//at.alicdn.com/t/font_1031158_u69w8yhxdu.woff2?t=1630033759944") format("woff2"), url("//at.alicdn.com/t/font_1031158_u69w8yhxdu.woff?t=1630033759944") format("woff"), url("//at.alicdn.com/t/font_1031158_u69w8yhxdu.ttf?t=1630033759944") format("truetype"); }
</style></defs><path d="M1318.502489 432.779052c0-231.790522-209.29842-419.704826-467.458992-419.704826s-467.56979 188.357498-467.56979 419.704826 209.409219 419.704826 467.56979 419.704826a512.110799 512.110799 0 0 0 183.482363-33.239559l93.292361 93.292361a25.816057 25.816057 0 0 0 44.319412-19.168145L1165.822116 742.350141C1259.336074 665.56676 1318.502489 555.433023 1318.502489 432.779052z" fill="#612273" p-id="3756"></path><path d="M1034.304263 745.784895a509.673231 509.673231 0 0 1-183.482363 33.239559c-244.532352 0-445.077689-168.524562-465.353819-383.25211-1.107985 12.07704-1.883575 24.264878-1.883575 36.563514 0 231.790522 209.409219 419.704826 467.56979 419.704826a512.110799 512.110799 0 0 0 183.482363-33.239559l93.292361 93.292361a25.816057 25.816057 0 0 0 44.319411-19.168145 25.262064 25.262064 0 0 0-7.5343-17.284571zM1165.822116 669.223112l2.769964 70.689461C1260.44406 663.239991 1318.502489 553.992642 1318.502489 432.779052a366.632331 366.632331 0 0 0-1.883575-36.785111 403.971435 403.971435 0 0 1-150.796798 273.229171z" fill="#612273" opacity=".2" p-id="3757"></path><path d="M383.25211 432.779052a383.141311 383.141311 0 0 1 41.881844-172.956503c-12.298637-0.997187-24.81887-1.661978-37.449903-1.661978C173.510496 258.160571 0 413.943302 0 606.178749c0 101.713049 48.97295 193.011037 126.421121 256.609392l-5.761524 148.470028a12.187838 12.187838 0 0 0 20.830124 9.08548l94.06795-93.957153A425.577148 425.577148 0 0 0 387.79485 954.196927a404.636226 404.636226 0 0 0 300.37481-128.304696c-177.831638-59.388011-304.91755-212.733175-304.91755-393.113179z" fill="#EB3D72" p-id="3758"></path><path d="M342.256654 391.672798c0 117.557239 53.958883 223.59143 140.714132 299.71002a391.008007 391.008007 0 0 1-99.718676-258.603766 383.141311 383.141311 0 0 1 41.881844-172.956503c-12.298637-0.997187-24.81887-1.661978-37.449903-1.661978-7.091106 0-14.071413 0-21.05172 0.553993a375.939407 375.939407 0 0 0-24.375677 132.958234zM630.111231 802.181346a407.627786 407.627786 0 0 1-283.533434 110.798528 424.136767 424.136767 0 0 1-152.12638-27.699632l-71.686647 71.686648-2.105173 54.291279a12.187838 12.187838 0 0 0 20.830124 9.08548l94.06795-93.957153A425.577148 425.577148 0 0 0 387.79485 954.196927a404.636226 404.636226 0 0 0 300.37481-128.304696 486.294741 486.294741 0 0 1-58.058429-23.710885zM85.425665 821.792686l-5.761523-4.985934c1.883575 2.215971 3.656351 4.431941 5.650725 6.647911z" fill="#EB3D72" opacity=".5" p-id="3759"></path><path d="M833.426531 332.395585c64.263147-10.193465 64.041549-66.479117 62.601169-75.342999s-15.400995-54.291279-59.942004-47.200173S799.078987 254.836615 799.078987 254.836615a28.475222 28.475222 0 1 0 56.174854-8.97468s6.315516 3.323956 8.30989 20.27613-11.966241 29.029214-35.455529 33.239559-88.638823-19.943735-104.039819-115.452067C709.110582 96.39472 781.57282 28.253625 838.966457 13.185025a55.399264 55.399264 0 0 0-64.041549-5.318329c-56.064055 35.123134-97.170309 109.579745-85.536464 182.817571 14.957801 93.846354 79.664142 151.904783 144.038087 141.711318zM203.980091 573.825579a53.072495 53.072495 0 0 0 33.90435-67.919498c-2.659165-6.537113-21.162519-38.225492-53.51569-25.040467a30.026401 30.026401 0 0 0-19.832936 40.773858 22.159706 22.159706 0 1 0 40.773858-16.619779s5.318329 1.329582 9.861069 13.739017-3.988747 24.043281-21.05172 31.023588-70.02467 0.553993-98.832288-68.695087C68.916685 417.599654 110.798528 353.558104 151.904783 332.395585a42.879031 42.879031 0 0 0-48.97295 7.423502 146.918849 146.918849 0 0 0-32.574767 152.458775c27.810431 68.141095 86.866046 100.605064 133.623025 81.547717z" fill="#FED150" p-id="3760"></path></svg>