<?xml version="1.0" standalone="no"?><!DOCTYPE svg PUBLIC "-//W3C//DTD SVG 1.1//EN" "http://www.w3.org/Graphics/SVG/1.1/DTD/svg11.dtd"><svg t="1647237475102" class="icon" viewBox="0 0 1024 1024" version="1.1" xmlns="http://www.w3.org/2000/svg" p-id="2735" data-darkreader-inline-fill="" xmlns:xlink="http://www.w3.org/1999/xlink" width="32" height="32"><defs><style type="text/css"></style></defs><path d="M907.8 467.1l-79.2-77.7v-98c-0.1-34.9 10.3-97.9-24.4-98H609L560.2 120c-24.6-24.6-68.8-30.7-93.4-6.1l-53 79.6H267.3c-34.8 0.1-74.9 27.5-75 62.4v128.3l-77.5 83c-24.5 24.7-24.5 64.7 0 89.4l77.5 84.1V769c0.1 34.9 15.8 61.3 50.6 61.4h146.4l77.4 79.4c24.6 24.6 64.5 24.6 89.1 0l77.5-79.4h122c34.8-0.1 73.1-38.6 73.2-73.5V634.4l79.2-77.8c24.6-24.8 24.6-64.7 0.1-89.5zM511.9 704.8L288.2 384.1H448l63.3 191 64.5-191h159.8L511.9 704.8z" p-id="2736" fill="#ff9933" data-darkreader-inline-fill="" style="--darkreader-inline-fill:#ad5700;"></path></svg>